#!OML:ASF H:\Swim 2\Project 1\Capture day 1\Session 1\male.ASF
:FULLY-SPECIFIED
:DEGREES
1857
root 4.76166 14.5259 8.41227 100.8 -41.5138 11.391
lowerback -7.43302 1.26214 8.72443
upperback -9.86855 1.20068 -2.7855
thorax -6.08286 -0.161171 -7.84714
lowerneck -20.4135 -2.57473 -5.15325
upperneck 21.5884 -3.33877 5.40952
head 10.4798 -1.29463 2.29624
rclavicle -2.8625e-014 -6.53008e-014
rhumerus 87.8683 15.8459 -137.901
rradius 11.422
rwrist 69.7873
rhand -30.5039 12.7884
rfingers 7.12502
rthumb -3.80408 -17.1574
lclavicle -2.8625e-014 -6.53008e-014
lhumerus 108.914 9.90399 31.9982
lradius 26.077
lwrist 69.5421
lhand -37.2772 -12.0128
lfingers 7.12502
lthumb -10.342 17.7129
rfemur -82.4614 -1.31754 8.79814
rtibia 46.5611
rfoot 10.4869 -10.3299
rtoes 8.03805
lfemur -82.5275 -9.73103 -18.0976
ltibia 41.191
lfoot -11.415 13.5101
ltoes -22.9876
1858
root 4.76244 14.5185 8.43271 100.816 -41.505 11.3552
lowerback -7.49365 1.2677 8.68225
upperback -9.8833 1.20169 -2.84247
thorax -6.064 -0.15996 -7.88421
lowerneck -20.3891 -2.60924 -5.10888
upperneck 21.5201 -3.39153 5.38382
head 10.4524 -1.31828 2.2708
rclavicle -3.18055e-015 -3.72721e-014
rhumerus 87.469 15.9487 -139.506
rradius 11.2931
rwrist 71.3655
rhand -30.7368 12.8484
rfingers 7.12502
rthumb -4.02895 -17.0932
lclavicle -3.18055e-015 -3.72721e-014
lhumerus 108.93 9.77204 32.0037
lradius 26.0374
lwrist 69.0952
lhand -37.257 -12.0602
lfingers 7.12502
lthumb -10.3225 17.6665
rfemur -82.2864 -1.38897 8.69027
rtibia 46.5843
rfoot 10.312 -10.5977
rtoes 8.11668
lfemur -82.3927 -9.4994 -18.1946
ltibia 41.262
lfoot -11.2773 13.1367
ltoes -23.0655
1859
root 4.76392 14.5098 8.45242 100.837 -41.5061 11.3256
lowerback -7.5661 1.27518 8.63463
upperback -9.90108 1.20435 -2.90383
thorax -6.04144 -0.157701 -7.92274
lowerneck -20.3718 -2.64693 -5.06517
upperneck 21.4669 -3.44719 5.35181
head 10.4318 -1.34394 2.24299
rclavicle -1.59028e-015 -7.91163e-014
rhumerus 87.0478 16.0437 -141.183
rradius 11.1813
rwrist 73.0184
rhand -30.9595 12.9218
rfingers 7.12502
rthumb -4.24401 -17.0157
lclavicle -1.59028e-015 -7.91163e-014
lhumerus 108.961 9.63663 32.0389
lradius 25.9829
lwrist 68.5867
lhand -37.2466 -12.1104
lfingers 7.12502
lthumb -10.3126 17.6168
rfemur -82.1337 -1.48221 8.59812
rtibia 46.6324
rfoot 10.1283 -10.8082
rtoes 8.18034
lfemur -82.2781 -9.25051 -18.3571
ltibia 41.3591
lfoot -11.1399 12.6759
ltoes -23.1704
1860
root 4.76621 14.5002 8.47141 100.866 -41.5134 11.2982
lowerback -7.64699 1.28624 8.58316
upperback -9.92368 1.21134 -2.96868
thorax -6.01853 -0.153321 -7.96268
lowerneck -20.3596 -2.68774 -5.01799
upperneck 21.427 -3.50566 5.30835
head 10.4169 -1.37185 2.21026
rclavicle 5.08889e-014 9.44227e-014
rhumerus 86.5993 16.1276 -142.947
rradius 11.0889
rwrist 74.7843
rhand -31.132 13.0152
rfingers 7.12502
rthumb -4.41055 -16.9188
lclavicle 5.08889e-014 9.44227e-014
lhumerus 109.009 9.49586 32.1064
lradius 25.9206
lwrist 68.079
lhand -37.2687 -12.1469
lfingers 7.12502
lthumb -10.3339 17.5792
rfemur -82.0084 -1.5968 8.53022
rtibia 46.7044
rfoot 9.93263 -10.9536
rtoes 8.22227
lfemur -82.191 -8.99011 -18.5628
ltibia 41.4854
lfoot -11.0212 12.1384
ltoes -23.2347
1861
root 4.76915 14.4899 8.48959 100.906 -41.5256 11.2666
lowerback -7.73434 1.30231 8.52433
upperback -9.95044 1.22509 -3.03521
thorax -5.99515 -0.145165 -7.99993
lowerneck -20.3704 -2.73618 -4.97224
upperneck 21.4252 -3.57496 5.26492
head 10.4206 -1.40432 2.17656
rclavicle 2.8625e-014 1.02772e-013
rhumerus 86.1052 16.1985 -144.877
rradius 11.0171
rwrist 76.7631
rhand -31.2668 13.1193
rfingers 7.12502
rthumb -4.5408 -16.812
lclavicle 2.8625e-014 1.02772e-013
lhumerus 109.074 9.35236 32.2043
lradius 25.856
lwrist 67.614
lhand -37.2487 -12.1472
lfingers 7.12502
lthumb -10.3145 17.5799
rfemur -81.9101 -1.72575 8.48568
rtibia 46.7968
rfoot 9.72243 -11.0421
rtoes 8.25305
lfemur -82.1343 -8.71916 -18.8002
ltibia 41.6439
lfoot -10.9141 11.5406
ltoes -23.2874
1862
root 4.77253 14.4792 8.50689 100.954 -41.5378 11.2284
lowerback -7.82385 1.32283 8.45765
upperback -9.98 1.24544 -3.10012
thorax -5.97223 -0.133103 -8.03064
lowerneck -20.4012 -2.78902 -4.93182
upperneck 21.4537 -3.65062 5.22712
head 10.4396 -1.43902 2.14506
rclavicle 2.70347e-014 -4.67144e-015
rhumerus 85.5623 16.254 -146.972
rradius 10.968
rwrist 78.9691
rhand -31.4661 13.1821
rfingers 7.12502
rthumb -4.73318 -16.745
lclavicle 2.70347e-014 -4.67144e-015
lhumerus 109.156 9.20466 32.3367
lradius 25.7902
lwrist 67.215
lhand -37.1831 -12.1065
lfingers 7.12502
lthumb -10.2513 17.6237
rfemur -81.835 -1.85919 8.46165
rtibia 46.9074
rfoot 9.49976 -11.0827
rtoes 8.26924
lfemur -82.1075 -8.44632 -19.0443
ltibia 41.8361
lfoot -10.819 10.915
ltoes -23.3465
